<svg width="145" height="72" viewBox="0 0 161 72" fill="none" xmlns="http://www.w3.org/2000/svg">
<rect x="2.5" y="50.0107" width="134.51" height="19.4893" rx="4.5" fill="white" stroke="#B03B26" stroke-width="5"/>
<rect width="2.6158" height="20.1162" transform="translate(48.8283 51.0092)" fill="#B03B26"/>
<rect width="2.6158" height="20.1162" transform="translate(88.9373 51.0092)" fill="#B03B26"/>
<path d="M70.6267 49.6973C68.1563 31.1846 71.6731 -4.09159 105.504 2.90534C147.793 11.6515 74.1145 53.6331 70.6267 49.6973ZM70.6267 49.6973C68.5922 35.4119 59.8147 8.32793 40.981 14.2753C17.4387 21.7096 68.011 51.4466 70.6267 49.6973Z" stroke="#B03B26" stroke-width="4"/>
<path d="M72.8065 50.1039C92.861 46.8969 133.057 38.7339 133.406 31.7369C133.755 24.74 151.281 23.5738 160 23.8654" stroke="#B03B26" stroke-width="4"/>
<path d="M68.0109 49.6666C51.1535 46.897 16.3924 39.521 12.2071 32.1743" stroke="#B03B26" stroke-width="4"/>
</svg>
