<svg width="35" height="38" viewBox="0 0 35 38" fill="none" xmlns="http://www.w3.org/2000/svg">
<mask id="path-1-inside-1_20_7" fill="white">
<path fill-rule="evenodd" clip-rule="evenodd" d="M24.9999 8.5C24.9999 10.2094 24.428 11.7853 23.4651 13.0467L23.5405 13.2164C23.6031 13.4323 23.7061 13.6902 23.8594 13.9339L23.9202 14.0706C23.926 14.064 23.9318 14.0573 23.9376 14.0506C24.0386 14.192 24.1579 14.3253 24.2977 14.4385C24.5332 14.6293 24.8347 14.7684 25.1956 14.7749C25.5527 14.7813 25.9157 14.6571 26.2773 14.416C26.9258 13.9837 28.2035 13.6199 29.5452 13.4979C30.2053 13.4379 30.8553 13.4391 31.4207 13.5115C31.9949 13.5852 32.4391 13.727 32.7226 13.916C33.3086 14.3067 33.6407 15.0212 33.7549 15.8207C33.8699 16.6256 33.7451 17.3915 33.5527 17.7764L33.5482 17.7855C33.3457 18.1906 32.6185 19.6458 30.2427 21.0713C29.3967 21.5788 28.6515 21.8191 28.001 22.0288L28.0005 22.029C27.9264 22.0529 27.8535 22.0764 27.7819 22.0998C27.1225 22.3156 26.4088 22.5643 26.0527 23.2764L25.9999 23.382V23.5V25V25.118L26.0527 25.2236C26.6007 26.3195 27.7234 27.4292 28.6906 28.2711C29.1825 28.6993 29.6503 29.0716 30.0103 29.3528C30.1073 29.4286 30.1911 29.4936 30.2663 29.5519L30.2669 29.5524L30.2674 29.5528C30.3372 29.6069 30.3995 29.6553 30.4581 29.7011C30.5158 29.7463 30.5618 29.7829 30.5967 29.8114C30.6288 29.8378 30.6427 29.8503 30.6458 29.8531L30.6464 29.8536C30.6605 29.8677 30.7043 29.9223 30.7712 30.0412C30.834 30.1526 30.9042 30.2973 30.9773 30.4692C31.1236 30.8129 31.2724 31.2434 31.3918 31.6913C31.5116 32.1406 31.5979 32.5926 31.6262 32.9816C31.656 33.3907 31.615 33.6519 31.5527 33.7764C31.3096 34.2626 30.9827 34.8316 30.5482 35.2751C30.1193 35.7129 29.6152 36 28.9999 36C28.6712 36 28.2304 36.0229 27.7384 36.0484H27.7383L27.4512 36.0631C26.8355 36.0943 26.1428 36.125 25.4374 36.125C23.9997 36.125 22.6078 35.9949 21.7235 35.5528C20.9869 35.1845 20.1947 34.5556 19.4916 33.8975C18.793 33.2435 18.2092 32.5862 17.8903 32.1877L17.6494 32.3804L17.4085 32.1877C17.0897 32.5862 16.5059 33.2435 15.8073 33.8975C15.1041 34.5556 14.312 35.1845 13.5753 35.5528C12.6911 35.9949 11.2992 36.125 9.86145 36.125C9.15602 36.125 8.46339 36.0943 7.84768 36.0631L7.56056 36.0484C7.06853 36.0229 6.6277 36 6.29895 36C5.68366 36 5.17959 35.7129 4.75068 35.2751C4.31615 34.8316 3.98927 34.2626 3.74617 33.7764C3.68392 33.6519 3.64288 33.3907 3.67264 32.9816C3.70092 32.5926 3.78727 32.1406 3.90707 31.6913C4.02651 31.2434 4.1753 30.8129 4.32153 30.4692C4.3947 30.2973 4.46487 30.1526 4.52762 30.0412C4.59457 29.9223 4.63839 29.8677 4.65251 29.8536L4.65327 29.8529C4.65374 29.8524 4.65442 29.8518 4.65531 29.851L4.6661 29.8413C4.67638 29.8323 4.69018 29.8206 4.7081 29.8058C4.74412 29.776 4.79109 29.7385 4.84958 29.6925C4.91323 29.6424 4.98474 29.5868 5.06548 29.5241L5.06568 29.5239L5.06587 29.5238C5.13667 29.4687 5.21458 29.4081 5.30051 29.3409C5.66149 29.0587 6.12839 28.6872 6.61862 28.2607C7.58265 27.4221 8.69825 26.3194 9.24617 25.2236L9.29895 25.118V25V23.5V23.382L9.24617 23.2764C8.8901 22.5643 8.17641 22.3156 7.51697 22.0998C7.44538 22.0764 7.37257 22.0529 7.29854 22.029L7.29787 22.0288C6.64732 21.8191 5.90215 21.5788 5.0562 21.0713C2.68039 19.6458 1.95316 18.1906 1.75071 17.7855L1.74617 17.7764C1.55373 17.3915 1.42895 16.6256 1.54393 15.8207C1.65815 15.0212 1.99028 14.3067 2.5763 13.916C2.85976 13.727 3.304 13.5852 3.87816 13.5115C4.44355 13.4391 5.09355 13.4379 5.75369 13.4979C7.0954 13.6199 8.3731 13.9837 9.0216 14.416C9.4128 14.6768 9.81438 14.7649 10.1971 14.6651C10.5595 14.5706 10.8194 14.3292 10.9925 14.1091C11.1056 13.9652 11.1958 13.8127 11.2658 13.6746L11.6031 13.1349C10.5989 11.8591 9.9999 10.2495 9.9999 8.5C9.9999 4.35786 13.3578 1 17.4999 1C21.642 1 24.9999 4.35786 24.9999 8.5ZM10.3983 13.1726C9.51435 11.8319 8.9999 10.226 8.9999 8.5C8.9999 3.80558 12.8055 0 17.4999 0C22.1943 0 25.9999 3.80558 25.9999 8.5C25.9999 10.2322 25.4818 11.8433 24.5921 13.1869C24.6758 13.3744 24.7913 13.5514 24.9271 13.6615C25.0208 13.7374 25.1131 13.7732 25.2136 13.7751C25.318 13.7769 25.4841 13.7429 25.7226 13.584C26.5741 13.0163 28.0464 12.6301 29.4546 12.502C30.1695 12.437 30.8945 12.4359 31.5479 12.5197C32.1925 12.6023 32.8107 12.7729 33.2773 13.084C34.1912 13.6933 34.6091 14.7288 34.7449 15.6793C34.8799 16.6244 34.7547 17.6085 34.4471 18.2236C34.1959 18.726 33.3632 20.3651 30.7572 21.9287C29.8079 22.4983 28.9594 22.7712 28.308 22.9806C28.2337 23.0045 28.162 23.0276 28.0929 23.0502C27.4557 23.2587 27.1589 23.4016 26.9999 23.6337V24.878C27.4727 25.7548 28.4209 26.7106 29.3471 27.5168C29.8198 27.9282 30.2718 28.2882 30.6259 28.5648C30.7125 28.6325 30.7987 28.6993 30.8771 28.7601L30.8786 28.7613C30.9529 28.819 31.0203 28.8712 31.0746 28.9138C31.1813 28.9973 31.2915 29.0845 31.3535 29.1464C31.4643 29.2573 31.5612 29.4059 31.6426 29.5506C31.7283 29.7028 31.8144 29.8824 31.8975 30.0777C32.0638 30.4684 32.2275 30.9441 32.358 31.4337C32.4882 31.9219 32.5894 32.4386 32.6236 32.909C32.6563 33.3593 32.6349 33.8481 32.4471 34.2236C32.1902 34.7374 31.8077 35.4184 31.2625 35.9749C30.7117 36.5371 29.9658 37 28.9999 37C28.6995 37 28.2914 37.0211 27.7977 37.0467L27.5018 37.0619C26.8831 37.0932 26.1695 37.125 25.4374 37.125C24.0001 37.125 22.3921 37.0051 21.2763 36.4472C20.4129 36.0155 19.5384 35.3111 18.8082 34.6275C18.3689 34.2163 17.972 33.8033 17.6494 33.4448C17.3269 33.8033 16.93 34.2163 16.4906 34.6275C15.7604 35.3111 14.8859 36.0155 14.0226 36.4472C12.9068 37.0051 11.2987 37.125 9.86145 37.125C9.12939 37.125 8.41576 37.0932 7.79711 37.0619L7.5012 37.0467C7.00748 37.0211 6.59932 37 6.29895 37C5.33311 37 4.58718 36.5371 4.03637 35.9749C3.49118 35.4184 3.10864 34.7374 2.85174 34.2236C2.66399 33.8481 2.64252 33.3593 2.67527 32.909C2.70949 32.4386 2.81064 31.9219 2.94084 31.4337C3.0714 30.9441 3.23511 30.4684 3.40138 30.0777C3.48446 29.8824 3.57053 29.7028 3.65622 29.5506C3.73772 29.4059 3.83452 29.2573 3.9454 29.1464C4.01004 29.0818 4.12116 28.9932 4.2314 28.9065C4.29532 28.8562 4.37164 28.7968 4.45579 28.7314L4.45685 28.7306C4.52807 28.6752 4.60488 28.6155 4.68451 28.5532C5.04015 28.2751 5.49134 27.916 5.96228 27.5063C6.88482 26.7037 7.82661 25.7544 8.29895 24.878V23.6337C8.13995 23.4016 7.84314 23.2587 7.20594 23.0502C7.13691 23.0276 7.06518 23.0045 6.99088 22.9806C6.33949 22.7712 5.49092 22.4983 4.54171 21.9287C1.93563 20.3651 1.10295 18.726 0.85174 18.2236C0.544175 17.6085 0.418961 16.6244 0.55398 15.6793C0.689761 14.7288 1.10763 13.6933 2.0216 13.084C2.48815 12.7729 3.1064 12.6023 3.751 12.5197C4.40436 12.4359 5.12936 12.437 5.84422 12.502C7.25251 12.6301 8.72481 13.0163 9.5763 13.584C9.7851 13.7232 9.89614 13.7101 9.94482 13.6974C10.0139 13.6794 10.1043 13.6208 10.2064 13.4909C10.2825 13.3942 10.3469 13.2806 10.3983 13.1726ZM30.6464 29.8536L30.6464 29.8536C30.6465 29.8537 30.6465 29.8537 30.6464 29.8536Z"/>
</mask>
<path fill-rule="evenodd" clip-rule="evenodd" d="M24.9999 8.5C24.9999 10.2094 24.428 11.7853 23.4651 13.0467L23.5405 13.2164C23.6031 13.4323 23.7061 13.6902 23.8594 13.9339L23.9202 14.0706C23.926 14.064 23.9318 14.0573 23.9376 14.0506C24.0386 14.192 24.1579 14.3253 24.2977 14.4385C24.5332 14.6293 24.8347 14.7684 25.1956 14.7749C25.5527 14.7813 25.9157 14.6571 26.2773 14.416C26.9258 13.9837 28.2035 13.6199 29.5452 13.4979C30.2053 13.4379 30.8553 13.4391 31.4207 13.5115C31.9949 13.5852 32.4391 13.727 32.7226 13.916C33.3086 14.3067 33.6407 15.0212 33.7549 15.8207C33.8699 16.6256 33.7451 17.3915 33.5527 17.7764L33.5482 17.7855C33.3457 18.1906 32.6185 19.6458 30.2427 21.0713C29.3967 21.5788 28.6515 21.8191 28.001 22.0288L28.0005 22.029C27.9264 22.0529 27.8535 22.0764 27.7819 22.0998C27.1225 22.3156 26.4088 22.5643 26.0527 23.2764L25.9999 23.382V23.5V25V25.118L26.0527 25.2236C26.6007 26.3195 27.7234 27.4292 28.6906 28.2711C29.1825 28.6993 29.6503 29.0716 30.0103 29.3528C30.1073 29.4286 30.1911 29.4936 30.2663 29.5519L30.2669 29.5524L30.2674 29.5528C30.3372 29.6069 30.3995 29.6553 30.4581 29.7011C30.5158 29.7463 30.5618 29.7829 30.5967 29.8114C30.6288 29.8378 30.6427 29.8503 30.6458 29.8531L30.6464 29.8536C30.6605 29.8677 30.7043 29.9223 30.7712 30.0412C30.834 30.1526 30.9042 30.2973 30.9773 30.4692C31.1236 30.8129 31.2724 31.2434 31.3918 31.6913C31.5116 32.1406 31.5979 32.5926 31.6262 32.9816C31.656 33.3907 31.615 33.6519 31.5527 33.7764C31.3096 34.2626 30.9827 34.8316 30.5482 35.2751C30.1193 35.7129 29.6152 36 28.9999 36C28.6712 36 28.2304 36.0229 27.7384 36.0484H27.7383L27.4512 36.0631C26.8355 36.0943 26.1428 36.125 25.4374 36.125C23.9997 36.125 22.6078 35.9949 21.7235 35.5528C20.9869 35.1845 20.1947 34.5556 19.4916 33.8975C18.793 33.2435 18.2092 32.5862 17.8903 32.1877L17.6494 32.3804L17.4085 32.1877C17.0897 32.5862 16.5059 33.2435 15.8073 33.8975C15.1041 34.5556 14.312 35.1845 13.5753 35.5528C12.6911 35.9949 11.2992 36.125 9.86145 36.125C9.15602 36.125 8.46339 36.0943 7.84768 36.0631L7.56056 36.0484C7.06853 36.0229 6.6277 36 6.29895 36C5.68366 36 5.17959 35.7129 4.75068 35.2751C4.31615 34.8316 3.98927 34.2626 3.74617 33.7764C3.68392 33.6519 3.64288 33.3907 3.67264 32.9816C3.70092 32.5926 3.78727 32.1406 3.90707 31.6913C4.02651 31.2434 4.1753 30.8129 4.32153 30.4692C4.3947 30.2973 4.46487 30.1526 4.52762 30.0412C4.59457 29.9223 4.63839 29.8677 4.65251 29.8536L4.65327 29.8529C4.65374 29.8524 4.65442 29.8518 4.65531 29.851L4.6661 29.8413C4.67638 29.8323 4.69018 29.8206 4.7081 29.8058C4.74412 29.776 4.79109 29.7385 4.84958 29.6925C4.91323 29.6424 4.98474 29.5868 5.06548 29.5241L5.06568 29.5239L5.06587 29.5238C5.13667 29.4687 5.21458 29.4081 5.30051 29.3409C5.66149 29.0587 6.12839 28.6872 6.61862 28.2607C7.58265 27.4221 8.69825 26.3194 9.24617 25.2236L9.29895 25.118V25V23.5V23.382L9.24617 23.2764C8.8901 22.5643 8.17641 22.3156 7.51697 22.0998C7.44538 22.0764 7.37257 22.0529 7.29854 22.029L7.29787 22.0288C6.64732 21.8191 5.90215 21.5788 5.0562 21.0713C2.68039 19.6458 1.95316 18.1906 1.75071 17.7855L1.74617 17.7764C1.55373 17.3915 1.42895 16.6256 1.54393 15.8207C1.65815 15.0212 1.99028 14.3067 2.5763 13.916C2.85976 13.727 3.304 13.5852 3.87816 13.5115C4.44355 13.4391 5.09355 13.4379 5.75369 13.4979C7.0954 13.6199 8.3731 13.9837 9.0216 14.416C9.4128 14.6768 9.81438 14.7649 10.1971 14.6651C10.5595 14.5706 10.8194 14.3292 10.9925 14.1091C11.1056 13.9652 11.1958 13.8127 11.2658 13.6746L11.6031 13.1349C10.5989 11.8591 9.9999 10.2495 9.9999 8.5C9.9999 4.35786 13.3578 1 17.4999 1C21.642 1 24.9999 4.35786 24.9999 8.5ZM10.3983 13.1726C9.51435 11.8319 8.9999 10.226 8.9999 8.5C8.9999 3.80558 12.8055 0 17.4999 0C22.1943 0 25.9999 3.80558 25.9999 8.5C25.9999 10.2322 25.4818 11.8433 24.5921 13.1869C24.6758 13.3744 24.7913 13.5514 24.9271 13.6615C25.0208 13.7374 25.1131 13.7732 25.2136 13.7751C25.318 13.7769 25.4841 13.7429 25.7226 13.584C26.5741 13.0163 28.0464 12.6301 29.4546 12.502C30.1695 12.437 30.8945 12.4359 31.5479 12.5197C32.1925 12.6023 32.8107 12.7729 33.2773 13.084C34.1912 13.6933 34.6091 14.7288 34.7449 15.6793C34.8799 16.6244 34.7547 17.6085 34.4471 18.2236C34.1959 18.726 33.3632 20.3651 30.7572 21.9287C29.8079 22.4983 28.9594 22.7712 28.308 22.9806C28.2337 23.0045 28.162 23.0276 28.0929 23.0502C27.4557 23.2587 27.1589 23.4016 26.9999 23.6337V24.878C27.4727 25.7548 28.4209 26.7106 29.3471 27.5168C29.8198 27.9282 30.2718 28.2882 30.6259 28.5648C30.7125 28.6325 30.7987 28.6993 30.8771 28.7601L30.8786 28.7613C30.9529 28.819 31.0203 28.8712 31.0746 28.9138C31.1813 28.9973 31.2915 29.0845 31.3535 29.1464C31.4643 29.2573 31.5612 29.4059 31.6426 29.5506C31.7283 29.7028 31.8144 29.8824 31.8975 30.0777C32.0638 30.4684 32.2275 30.9441 32.358 31.4337C32.4882 31.9219 32.5894 32.4386 32.6236 32.909C32.6563 33.3593 32.6349 33.8481 32.4471 34.2236C32.1902 34.7374 31.8077 35.4184 31.2625 35.9749C30.7117 36.5371 29.9658 37 28.9999 37C28.6995 37 28.2914 37.0211 27.7977 37.0467L27.5018 37.0619C26.8831 37.0932 26.1695 37.125 25.4374 37.125C24.0001 37.125 22.3921 37.0051 21.2763 36.4472C20.4129 36.0155 19.5384 35.3111 18.8082 34.6275C18.3689 34.2163 17.972 33.8033 17.6494 33.4448C17.3269 33.8033 16.93 34.2163 16.4906 34.6275C15.7604 35.3111 14.8859 36.0155 14.0226 36.4472C12.9068 37.0051 11.2987 37.125 9.86145 37.125C9.12939 37.125 8.41576 37.0932 7.79711 37.0619L7.5012 37.0467C7.00748 37.0211 6.59932 37 6.29895 37C5.33311 37 4.58718 36.5371 4.03637 35.9749C3.49118 35.4184 3.10864 34.7374 2.85174 34.2236C2.66399 33.8481 2.64252 33.3593 2.67527 32.909C2.70949 32.4386 2.81064 31.9219 2.94084 31.4337C3.0714 30.9441 3.23511 30.4684 3.40138 30.0777C3.48446 29.8824 3.57053 29.7028 3.65622 29.5506C3.73772 29.4059 3.83452 29.2573 3.9454 29.1464C4.01004 29.0818 4.12116 28.9932 4.2314 28.9065C4.29532 28.8562 4.37164 28.7968 4.45579 28.7314L4.45685 28.7306C4.52807 28.6752 4.60488 28.6155 4.68451 28.5532C5.04015 28.2751 5.49134 27.916 5.96228 27.5063C6.88482 26.7037 7.82661 25.7544 8.29895 24.878V23.6337C8.13995 23.4016 7.84314 23.2587 7.20594 23.0502C7.13691 23.0276 7.06518 23.0045 6.99088 22.9806C6.33949 22.7712 5.49092 22.4983 4.54171 21.9287C1.93563 20.3651 1.10295 18.726 0.85174 18.2236C0.544175 17.6085 0.418961 16.6244 0.55398 15.6793C0.689761 14.7288 1.10763 13.6933 2.0216 13.084C2.48815 12.7729 3.1064 12.6023 3.751 12.5197C4.40436 12.4359 5.12936 12.437 5.84422 12.502C7.25251 12.6301 8.72481 13.0163 9.5763 13.584C9.7851 13.7232 9.89614 13.7101 9.94482 13.6974C10.0139 13.6794 10.1043 13.6208 10.2064 13.4909C10.2825 13.3942 10.3469 13.2806 10.3983 13.1726ZM30.6464 29.8536L30.6464 29.8536C30.6465 29.8537 30.6465 29.8537 30.6464 29.8536Z" fill="white"/>
<path d="M23.4651 13.0467L15.5164 6.97891L11.9194 11.6909L14.327 17.108L23.4651 13.0467ZM23.5405 13.2164L33.1456 10.4338L32.9558 9.77854L32.6787 9.1551L23.5405 13.2164ZM23.8594 13.9339L32.9976 9.87258L32.7064 9.21744L32.3247 8.61054L23.8594 13.9339ZM23.9202 14.0706L14.7821 18.132L21.165 32.4938L31.4703 20.6277L23.9202 14.0706ZM23.9376 14.0506L32.076 8.23974L24.6813 -2.11711L16.367 7.51714L23.9376 14.0506ZM24.2977 14.4385L18.0029 22.2087L18.003 22.2087L24.2977 14.4385ZM25.1956 14.7749L25.3761 4.77653L25.376 4.77653L25.1956 14.7749ZM26.2773 14.416L20.7303 6.0955L20.7302 6.09551L26.2773 14.416ZM29.5452 13.4979L28.6398 3.53899L28.6398 3.53899L29.5452 13.4979ZM31.4207 13.5115L30.1491 23.4304L30.1491 23.4304L31.4207 13.5115ZM32.7226 13.916L38.2696 5.5955L38.2695 5.59548L32.7226 13.916ZM33.7549 15.8207L23.8554 17.2349V17.2349L33.7549 15.8207ZM33.5527 17.7764L24.6084 13.3042L24.6081 13.305L33.5527 17.7764ZM33.5482 17.7855L24.6035 13.3141L24.603 13.3151L33.5482 17.7855ZM30.2427 21.0713L35.3876 29.6462L35.3876 29.6462L30.2427 21.0713ZM28.001 22.0288L31.0611 31.5491L31.0695 31.5464L28.001 22.0288ZM28.0005 22.029L24.9404 12.5087L24.9317 12.5115L28.0005 22.029ZM27.7819 22.0998L24.6717 12.5958L24.6715 12.5958L27.7819 22.0998ZM26.0527 23.2764L17.1084 18.8042L17.1084 18.8043L26.0527 23.2764ZM25.9999 23.382L17.0556 18.9098L15.9999 21.0213V23.382H25.9999ZM25.9999 25.118H15.9999V27.4787L17.0556 29.5901L25.9999 25.118ZM26.0527 25.2236L17.1084 29.6957L17.1084 29.6958L26.0527 25.2236ZM28.6906 28.2711L22.1251 35.8139L22.1251 35.8139L28.6906 28.2711ZM30.0103 29.3528L23.8543 37.2334L23.8543 37.2334L30.0103 29.3528ZM30.2663 29.5519L24.1374 37.4536L24.1446 37.4592L24.1518 37.4648L30.2663 29.5519ZM30.2669 29.5524L36.4233 21.6721L36.4024 21.6558L36.3814 21.6395L30.2669 29.5524ZM30.2674 29.5528L24.111 37.4331L24.1248 37.4439L24.1387 37.4546L30.2674 29.5528ZM30.4581 29.7011L36.6231 21.8276L36.623 21.8275L30.4581 29.7011ZM30.5967 29.8114L36.9377 22.0789L36.9374 22.0787L30.5967 29.8114ZM30.6458 29.8531L23.9551 37.2851L24.0414 37.3628L24.1295 37.4384L30.6458 29.8531ZM30.6464 29.8536L37.7174 22.7825L37.4498 22.5148L37.1627 22.2682L30.6464 29.8536ZM30.7712 30.0412L39.4853 25.1355L39.4853 25.1355L30.7712 30.0412ZM30.9773 30.4692L40.1789 26.5537L40.1789 26.5536L30.9773 30.4692ZM31.3918 31.6913L21.7294 34.2679L21.7295 34.268L31.3918 31.6913ZM31.6262 32.9816L41.5999 32.2563L41.5999 32.2562L31.6262 32.9816ZM31.5527 33.7764L22.6085 29.3041L22.6084 29.3043L31.5527 33.7764ZM30.5482 35.2751L23.405 28.2768L30.5482 35.2751ZM27.7384 36.0484V46.0484H27.9975L28.2562 46.035L27.7384 36.0484ZM27.7383 36.0484V26.0484H27.4812L27.2245 26.0616L27.7383 36.0484ZM27.4512 36.0631L27.9568 46.0504L27.965 46.0499L27.4512 36.0631ZM21.7235 35.5528L17.2514 44.4971L17.2514 44.4971L21.7235 35.5528ZM19.4916 33.8975L12.6578 41.1981L12.6578 41.1981L19.4916 33.8975ZM17.8903 32.1877L25.699 25.9407L19.4521 18.132L11.6434 24.379L17.8903 32.1877ZM17.6494 32.3804L11.4025 40.1891L17.6494 45.1866L23.8964 40.1891L17.6494 32.3804ZM17.4085 32.1877L23.6555 24.379L15.8468 18.132L9.59984 25.9407L17.4085 32.1877ZM15.8073 33.8975L22.641 41.1981L22.641 41.1981L15.8073 33.8975ZM13.5753 35.5528L18.0475 44.4971L18.0475 44.4971L13.5753 35.5528ZM7.84768 36.0631L7.3339 46.0499L7.34203 46.0504L7.84768 36.0631ZM7.56056 36.0484L7.04275 46.035L7.04679 46.0352L7.56056 36.0484ZM4.75068 35.2751L-2.39247 42.2733L-2.39245 42.2733L4.75068 35.2751ZM3.67264 32.9816L13.6463 33.7069L3.67264 32.9816ZM3.90707 31.6913L-5.75528 29.1147V29.1147L3.90707 31.6913ZM4.32153 30.4692L-4.88001 26.5536L-4.88001 26.5537L4.32153 30.4692ZM4.52762 30.0412L13.2416 34.9469L13.2417 34.9469L4.52762 30.0412ZM4.65251 29.8536L-2.14562 22.5197L-2.28458 22.6485L-2.41856 22.7825L4.65251 29.8536ZM4.65327 29.8529L11.4514 37.1867L11.4733 37.1664L11.4951 37.146L4.65327 29.8529ZM4.65531 29.851L-2.01435 22.4001L-2.06767 22.4478L-2.12029 22.4963L4.65531 29.851ZM4.6661 29.8413L-1.92847 22.3239L-1.96618 22.357L-2.00356 22.3904L4.6661 29.8413ZM4.7081 29.8058L11.0761 37.516L11.0761 37.516L4.7081 29.8058ZM4.84958 29.6925L11.0312 37.553L11.0312 37.553L4.84958 29.6925ZM5.06548 29.5241L-1.04255 21.6062L-1.05765 21.6179L-1.07271 21.6296L5.06548 29.5241ZM5.06568 29.5239L11.1737 37.4417L11.198 37.423L11.2221 37.4042L5.06568 29.5239ZM5.06587 29.5238L-1.07207 21.6291L-1.08133 21.6363L-1.09057 21.6435L5.06587 29.5238ZM5.30051 29.3409L-0.85943 21.4634L-0.859574 21.4635L5.30051 29.3409ZM6.61862 28.2607L13.1821 35.8054L13.1821 35.8054L6.61862 28.2607ZM9.29895 25.118L18.2432 29.5902L19.299 27.4787V25.118H9.29895ZM9.29895 23.382H19.299V21.0212L18.2432 18.9098L9.29895 23.382ZM9.24617 23.2764L0.301895 27.7485L0.301928 27.7486L9.24617 23.2764ZM7.51697 22.0998L10.6274 12.5958L10.6273 12.5958L7.51697 22.0998ZM7.29854 22.029L4.22141 31.5438L4.2301 31.5466L7.29854 22.029ZM7.29787 22.0288L10.375 12.514L10.3664 12.5112L7.29787 22.0288ZM5.0562 21.0713L-0.0887583 29.6462L-0.0887537 29.6462L5.0562 21.0713ZM1.75071 17.7855L-7.19469 22.2554L-7.19444 22.2559L1.75071 17.7855ZM1.74617 17.7764L10.6916 13.3065L10.6904 13.3043L1.74617 17.7764ZM1.54393 15.8207L-8.35557 14.4065L-8.35557 14.4065L1.54393 15.8207ZM2.5763 13.916L-2.9707 5.5955L-2.9707 5.5955L2.5763 13.916ZM3.87816 13.5115L5.14979 23.4304L5.14981 23.4304L3.87816 13.5115ZM5.75369 13.4979L6.65904 3.53899L6.65904 3.53899L5.75369 13.4979ZM9.0216 14.416L3.4746 22.7365L3.4746 22.7365L9.0216 14.416ZM10.1971 14.6651L12.7203 24.3415L12.7203 24.3415L10.1971 14.6651ZM10.9925 14.1091L3.13193 7.92748L3.13192 7.9275L10.9925 14.1091ZM11.2658 13.6746L2.7858 8.37461L2.54838 8.75447L2.34589 9.15404L11.2658 13.6746ZM11.6031 13.1349L20.0831 18.4349L23.8087 12.4738L19.461 6.95L11.6031 13.1349ZM10.3983 13.1726L19.4301 17.4653L21.8497 12.3743L18.7471 7.66829L10.3983 13.1726ZM24.5921 13.1869L16.2544 7.66579L13.2207 12.247L15.461 17.2642L24.5921 13.1869ZM24.9271 13.6615L18.6324 21.4317L18.6325 21.4317L24.9271 13.6615ZM25.2136 13.7751L25.3941 3.77669L25.394 3.77669L25.2136 13.7751ZM25.7226 13.584L31.2696 21.9045L31.2696 21.9045L25.7226 13.584ZM29.4546 12.502L28.5493 2.5431L28.5493 2.5431L29.4546 12.502ZM31.5479 12.5197L32.8195 2.60085L32.8195 2.60085L31.5479 12.5197ZM33.2773 13.084L38.8243 4.76346L38.8243 4.76345L33.2773 13.084ZM34.7449 15.6793L24.8454 17.0935L24.8454 17.0935L34.7449 15.6793ZM34.4471 18.2236L25.5029 13.7514L25.5029 13.7515L34.4471 18.2236ZM30.7572 21.9287L35.9021 30.5037L35.9021 30.5037L30.7572 21.9287ZM28.308 22.9806L31.3694 32.5005L31.3695 32.5005L28.308 22.9806ZM28.0929 23.0502L31.2033 32.5542L31.2034 32.5541L28.0929 23.0502ZM26.9999 23.6337L18.7505 17.9814L16.9999 20.5364V23.6337H26.9999ZM26.9999 24.878H16.9999V27.4021L18.1979 29.6239L26.9999 24.878ZM29.3471 27.5168L22.7817 35.0597L22.7817 35.0597L29.3471 27.5168ZM30.6259 28.5648L36.782 20.6843L36.7819 20.6842L30.6259 28.5648ZM30.8771 28.7601L37.0083 20.8603L37.0074 20.8595L30.8771 28.7601ZM30.8786 28.7613L24.7474 36.6612L24.7483 36.6619L30.8786 28.7613ZM31.0746 28.9138L37.2394 21.0401L37.2393 21.04L31.0746 28.9138ZM31.6426 29.5506L22.9286 34.4563L22.9286 34.4563L31.6426 29.5506ZM31.8975 30.0777L22.6959 33.9932L22.6959 33.9932L31.8975 30.0777ZM32.358 31.4337L42.0204 28.8571L42.0204 28.857L32.358 31.4337ZM32.6236 32.909L22.6499 33.6344L22.6499 33.6345L32.6236 32.909ZM32.4471 34.2236L23.5029 29.7514L23.5029 29.7515L32.4471 34.2236ZM31.2625 35.9749L38.4056 42.9732L31.2625 35.9749ZM27.7977 37.0467L28.3106 47.0335L28.3144 47.0333L27.7977 37.0467ZM27.5018 37.0619L28.0074 47.0491L28.0147 47.0487L27.5018 37.0619ZM21.2763 36.4472L16.8042 45.3915L16.8042 45.3915L21.2763 36.4472ZM18.8082 34.6275L25.642 27.3269L25.642 27.3269L18.8082 34.6275ZM17.6494 33.4448L25.0842 26.7571L17.6494 18.4918L10.2147 26.7571L17.6494 33.4448ZM16.4906 34.6275L9.65689 27.3269L9.65688 27.3269L16.4906 34.6275ZM14.0226 36.4472L18.4947 45.3915L18.4947 45.3915L14.0226 36.4472ZM7.79711 37.0619L7.28418 47.0487L7.29146 47.0491L7.79711 37.0619ZM7.5012 37.0467L6.98445 47.0333L6.98828 47.0335L7.5012 37.0467ZM4.03637 35.9749L-3.10677 42.9732L-3.10677 42.9732L4.03637 35.9749ZM2.85174 34.2236L11.796 29.7515L11.796 29.7514L2.85174 34.2236ZM2.67527 32.909L12.6489 33.6344L12.6489 33.6344L2.67527 32.909ZM2.94084 31.4337L12.6032 34.0103H12.6032L2.94084 31.4337ZM3.40138 30.0777L12.6029 33.9932L12.6029 33.9932L3.40138 30.0777ZM3.65622 29.5506L12.3703 34.4563L12.3703 34.4563L3.65622 29.5506ZM4.2314 28.9065L-1.95028 21.046L-1.95032 21.046L4.2314 28.9065ZM4.45579 28.7314L10.5945 36.6255L10.6016 36.6199L4.45579 28.7314ZM4.45685 28.7306L-1.6818 20.8365L-1.68895 20.842L4.45685 28.7306ZM4.68451 28.5532L10.8444 36.4308L10.8445 36.4307L4.68451 28.5532ZM5.96228 27.5063L-0.601167 19.9617L-0.601172 19.9617L5.96228 27.5063ZM8.29895 24.878L17.1019 29.6223L18.299 27.4012V24.878H8.29895ZM8.29895 23.6337H18.299V20.5364L16.5483 17.9814L8.29895 23.6337ZM7.20594 23.0502L4.09547 32.5541L4.09557 32.5542L7.20594 23.0502ZM6.99088 22.9806L3.92939 32.5005L3.92944 32.5005L6.99088 22.9806ZM4.54171 21.9287L-0.603252 30.5037L-0.603243 30.5037L4.54171 21.9287ZM0.85174 18.2236L-8.09253 22.6957L-8.09253 22.6958L0.85174 18.2236ZM0.55398 15.6793L10.4535 17.0935L10.4535 17.0935L0.55398 15.6793ZM2.0216 13.084L-3.5254 4.76345L-3.5254 4.76345L2.0216 13.084ZM3.751 12.5197L2.47936 2.60085L2.47934 2.60085L3.751 12.5197ZM5.84422 12.502L6.74958 2.5431L6.74957 2.5431L5.84422 12.502ZM9.5763 13.584L15.1233 5.26347L15.1233 5.26345L9.5763 13.584ZM9.94482 13.6974L7.42177 4.02093L7.42172 4.02095L9.94482 13.6974ZM10.2064 13.4909L18.0669 19.6725L18.067 19.6725L10.2064 13.4909ZM30.6464 29.8536L22.8377 36.1006L23.4249 36.8345L24.1385 37.4462L30.6464 29.8536ZM31.4138 19.1145C33.6608 16.171 34.9999 12.4776 34.9999 8.5H14.9999C14.9999 7.94126 15.1952 7.39961 15.5164 6.97891L31.4138 19.1145ZM32.6787 9.1551L32.6032 8.98534L14.327 17.108L14.4024 17.2778L32.6787 9.1551ZM32.3247 8.61054C32.7593 9.30165 33.0011 9.93499 33.1456 10.4338L13.9355 15.9991C14.2051 16.9296 14.6529 18.0787 15.3941 19.2573L32.3247 8.61054ZM33.0583 10.0093L32.9976 9.87258L14.7213 17.9953L14.7821 18.132L33.0583 10.0093ZM16.367 7.51714C16.3679 7.51607 16.3689 7.51487 16.3701 7.51356L31.4703 20.6277C31.4831 20.6131 31.4957 20.5985 31.5082 20.584L16.367 7.51714ZM30.5924 6.66831C31.2659 7.21385 31.7455 7.7768 32.076 8.23974L15.7991 19.8614C16.3317 20.6073 17.05 21.4368 18.0029 22.2087L30.5924 6.66831ZM25.376 4.77653C27.6231 4.81709 29.4143 5.71387 30.5924 6.66826L18.003 22.2087C19.652 23.5447 22.0463 24.7197 25.0151 24.7733L25.376 4.77653ZM20.7302 6.09551C21.5969 5.51775 23.202 4.73728 25.3761 4.77653L25.0151 24.7733C27.9034 24.8254 30.2345 23.7964 31.8243 22.7365L20.7302 6.09551ZM28.6398 3.53899C26.6333 3.72141 23.4091 4.30962 20.7303 6.0955L31.8243 22.7365C31.3062 23.0819 30.8986 23.2631 30.7245 23.3358C30.5251 23.419 30.3995 23.4556 30.3654 23.4652C30.3086 23.4812 30.3558 23.4655 30.4505 23.4569L28.6398 3.53899ZM32.6924 3.59273C31.2472 3.40745 29.8472 3.42923 28.6398 3.53899L30.4505 23.4569C30.4851 23.4537 30.4901 23.4551 30.46 23.4549C30.4346 23.4547 30.328 23.4533 30.1491 23.4304L32.6924 3.59273ZM38.2695 5.59548C36.1546 4.18552 33.9695 3.75647 32.6923 3.59273L30.1491 23.4304C29.9743 23.408 29.64 23.3536 29.1945 23.2143C28.7793 23.0843 28.0328 22.808 27.1756 22.2365L38.2695 5.59548ZM43.6544 14.4065C43.3227 12.0846 42.1275 8.16745 38.2696 5.5955L27.1756 22.2365C24.4897 20.4459 23.9587 17.9578 23.8554 17.2349L43.6544 14.4065ZM42.497 22.2486C43.8399 19.5627 43.9701 16.6164 43.6544 14.4065L23.8554 17.2349C23.7829 16.7274 23.7829 16.2422 23.8405 15.7631C23.8703 15.5154 23.9231 15.2056 24.0198 14.8432C24.1091 14.5085 24.2804 13.9604 24.6084 13.3042L42.497 22.2486ZM42.4928 22.2569L42.4973 22.2478L24.6081 13.305L24.6035 13.3141L42.4928 22.2569ZM35.3876 29.6462C39.8594 26.9631 41.7203 23.8027 42.4933 22.2558L24.603 13.3151C24.582 13.3572 24.6086 13.303 24.6453 13.2351C24.6837 13.1639 24.7297 13.0832 24.7824 12.9983C24.8898 12.8251 24.9962 12.6807 25.0933 12.5665C25.3001 12.3235 25.3614 12.3381 25.0977 12.4963L35.3876 29.6462ZM31.0695 31.5464C31.7629 31.3228 33.4732 30.7948 35.3876 29.6462L25.0977 12.4963C25.145 12.468 25.1932 12.442 25.2387 12.4198C25.2838 12.3978 25.3157 12.3845 25.3264 12.3802C25.3352 12.3767 25.3192 12.3835 25.2587 12.4043C25.2279 12.4148 25.1885 12.4281 25.1341 12.4459C25.0769 12.4647 25.0172 12.4839 24.9325 12.5112L31.0695 31.5464ZM31.0606 31.5493L31.0611 31.5491L24.9409 12.5085L24.9404 12.5087L31.0606 31.5493ZM30.8921 31.6038C30.9395 31.5883 30.9913 31.5716 31.0693 31.5464L24.9317 12.5115C24.8616 12.5341 24.7676 12.5644 24.6717 12.5958L30.8921 31.6038ZM34.997 27.7485C34.1061 29.5303 32.7838 30.5905 31.8428 31.1394C31.1044 31.5703 30.4759 31.74 30.8923 31.6038L24.6715 12.5958C24.5329 12.6412 19.5785 13.8642 17.1084 18.8042L34.997 27.7485ZM34.9442 27.8541L34.997 27.7485L17.1084 18.8043L17.0556 18.9098L34.9442 27.8541ZM35.9999 23.5V23.382H15.9999V23.5H35.9999ZM35.9999 25V23.5H15.9999V25H35.9999ZM35.9999 25.118V25H15.9999V25.118H35.9999ZM34.997 20.7515L34.9442 20.646L17.0556 29.5901L17.1084 29.6957L34.997 20.7515ZM35.256 20.7282C35.11 20.6011 34.9804 20.4832 34.8684 20.3758C34.7548 20.2669 34.6772 20.1859 34.6303 20.1341C34.5808 20.0793 34.5934 20.0878 34.6458 20.1598C34.6739 20.1985 34.7201 20.2645 34.778 20.3576C34.8355 20.4503 34.9122 20.5819 34.997 20.7515L17.1084 29.6958C18.6148 32.7085 21.1033 34.9245 22.1251 35.8139L35.256 20.7282ZM36.1663 21.4723C35.8654 21.2372 35.555 20.9885 35.256 20.7282L22.1251 35.8139C22.8101 36.4101 23.4353 36.9061 23.8543 37.2334L36.1663 21.4723ZM36.3951 21.6502C36.3196 21.5916 36.2482 21.5362 36.1663 21.4722L23.8543 37.2334C23.9664 37.321 24.0625 37.3955 24.1374 37.4536L36.3951 21.6502ZM36.3814 21.6395L36.3807 21.6391L24.1518 37.4648L24.1524 37.4652L36.3814 21.6395ZM36.4239 21.6726L36.4233 21.6721L24.1104 37.4326L24.111 37.4331L36.4239 21.6726ZM36.623 21.8275C36.5429 21.7648 36.4616 21.7018 36.3962 21.651L24.1387 37.4546C24.2128 37.5121 24.2561 37.5457 24.2933 37.5748L36.623 21.8275ZM36.9374 22.0787C36.8133 21.9769 36.6961 21.8848 36.6231 21.8276L24.2931 37.5747C24.309 37.5871 24.3138 37.5909 24.3109 37.5886C24.309 37.5872 24.3035 37.5828 24.295 37.576C24.2867 37.5692 24.2733 37.5584 24.256 37.5442L36.9374 22.0787ZM37.3365 22.421C37.2192 22.3155 37.0887 22.2028 36.9377 22.0789L24.2557 37.544C24.2185 37.5135 24.1707 37.4736 24.1146 37.4254C24.0862 37.401 24.0565 37.3751 24.0255 37.3478C24.0101 37.3342 23.9954 37.3212 23.9816 37.3088C23.9748 37.3028 23.9688 37.2973 23.9637 37.2928C23.9589 37.2885 23.955 37.285 23.9551 37.2851L37.3365 22.421ZM37.1627 22.2682L37.1621 22.2677L24.1295 37.4384L24.1301 37.4389L37.1627 22.2682ZM39.4853 25.1355C39.2804 24.7715 38.705 23.7701 37.7174 22.7825L23.5753 36.9246C23.2092 36.5586 22.954 36.2449 22.8411 36.1032C22.6951 35.92 22.576 35.7566 22.4831 35.6233C22.2967 35.3557 22.1568 35.1238 22.0572 34.9469L39.4853 25.1355ZM40.1789 26.5536C40.0067 26.1489 39.7775 25.6546 39.4853 25.1355L22.0572 34.9469C21.9672 34.7869 21.9033 34.6597 21.8637 34.5776C21.8225 34.4922 21.7937 34.4269 21.7758 34.3848L40.1789 26.5536ZM41.0541 29.1147C40.8235 28.2497 40.5255 27.3683 40.1789 26.5537L21.7758 34.3848C21.7576 34.3419 21.7459 34.3121 21.7397 34.2958C21.7333 34.279 21.7301 34.2696 21.7292 34.2671C21.7283 34.2643 21.7284 34.2645 21.729 34.2666C21.7297 34.2687 21.7298 34.2695 21.7294 34.2679L41.0541 29.1147ZM41.5999 32.2562C41.5123 31.0521 41.2778 29.9533 41.0541 29.1147L21.7295 34.268C21.729 34.2665 21.7271 34.2591 21.7239 34.2451C21.7208 34.2313 21.7153 34.2063 21.7086 34.1698C21.6975 34.1092 21.6703 33.95 21.6526 33.7069L41.5999 32.2562ZM40.4969 38.2486C41.8176 35.6074 41.6585 33.0624 41.5999 32.2563L21.6526 33.7069C21.6342 33.4538 21.6178 33.002 21.6823 32.4072C21.7151 32.1052 21.7758 31.7001 21.8951 31.2244C22.0082 30.7732 22.2161 30.0889 22.6085 29.3041L40.4969 38.2486ZM37.6913 42.2733C39.2334 40.6993 40.117 39.0084 40.497 38.2485L22.6084 29.3043C22.5843 29.3525 22.6204 29.274 22.7145 29.1279C22.8031 28.9902 23.0228 28.667 23.405 28.2768L37.6913 42.2733ZM28.9999 46C33.1119 46 36.0353 43.9637 37.6913 42.2733L23.405 28.2768C24.2033 27.4621 26.1185 26 28.9999 26V46ZM28.2562 46.035C28.5146 46.0216 28.6952 46.0123 28.8484 46.0059C29.0095 45.9991 29.0413 46 28.9999 46V26C28.3514 26 27.608 26.0417 27.2206 26.0618L28.2562 46.035ZM27.7383 46.0484H27.7384V26.0484H27.7383V46.0484ZM27.965 46.0499L28.2521 46.0352L27.2245 26.0616L26.9374 26.0763L27.965 46.0499ZM25.4374 46.125C26.4092 46.125 27.3119 46.083 27.9568 46.0504L26.9455 26.0759C26.359 26.1056 25.8765 26.125 25.4374 26.125V46.125ZM17.2514 44.4971C20.4534 46.0981 24.011 46.125 25.4374 46.125V26.125C25.2249 26.125 25.0553 26.1201 24.9255 26.1129C24.7928 26.1056 24.7333 26.0977 24.7356 26.098C24.7391 26.0984 24.7681 26.1025 24.8195 26.1125C24.8704 26.1224 24.954 26.1403 25.065 26.17C25.267 26.2242 25.6755 26.3484 26.1957 26.6085L17.2514 44.4971ZM12.6578 41.1981C13.6312 42.1093 15.2466 43.4947 17.2514 44.4971L26.1957 26.6085C26.291 26.6562 26.368 26.6984 26.4261 26.7318C26.4844 26.7653 26.5288 26.7928 26.559 26.8121C26.6169 26.8493 26.638 26.8662 26.6222 26.8543C26.6075 26.8432 26.5722 26.8156 26.5172 26.7689C26.4629 26.7226 26.3983 26.6651 26.3254 26.5968L12.6578 41.1981ZM10.0817 38.4346C10.6901 39.1951 11.5982 40.2062 12.6578 41.1981L26.3254 26.5968C26.176 26.457 26.0267 26.305 25.8966 26.164C25.7605 26.0166 25.6917 25.9315 25.699 25.9407L10.0817 38.4346ZM23.8964 40.1891L24.1373 39.9964L11.6434 24.379L11.4025 24.5717L23.8964 40.1891ZM11.1616 39.9964L11.4025 40.1891L23.8964 24.5717L23.6555 24.379L11.1616 39.9964ZM22.641 41.1981C23.7007 40.2062 24.6088 39.1951 25.2172 38.4346L9.59984 25.9407C9.60718 25.9315 9.53836 26.0166 9.40227 26.164C9.27215 26.305 9.12288 26.457 8.97349 26.5968L22.641 41.1981ZM18.0475 44.4971C20.0523 43.4947 21.6676 42.1093 22.641 41.1981L8.97351 26.5968C8.90053 26.6651 8.83593 26.7226 8.78164 26.7689C8.72672 26.8156 8.69133 26.8432 8.67671 26.8543C8.66086 26.8662 8.68196 26.8493 8.7399 26.8121C8.77008 26.7928 8.81446 26.7653 8.87276 26.7318C8.93085 26.6984 9.00785 26.6562 9.1032 26.6085L18.0475 44.4971ZM9.86145 46.125C11.2879 46.125 14.8454 46.0981 18.0475 44.4971L9.10321 26.6085C9.62338 26.3484 10.0319 26.2242 10.2339 26.17C10.3449 26.1403 10.4285 26.1224 10.4794 26.1125C10.5308 26.1025 10.5598 26.0984 10.5633 26.098C10.5656 26.0977 10.5061 26.1056 10.3734 26.1129C10.2435 26.1201 10.0739 26.125 9.86145 26.125V46.125ZM7.34203 46.0504C7.98697 46.083 8.88967 46.125 9.86145 46.125V26.125C9.42237 26.125 8.93982 26.1056 8.35333 26.0759L7.34203 46.0504ZM7.04679 46.0352L7.3339 46.0499L8.36145 26.0763L8.07434 26.0616L7.04679 46.0352ZM6.29895 46C6.2576 46 6.28947 45.9991 6.4505 46.0059C6.6038 46.0123 6.78435 46.0216 7.04275 46.035L8.07838 26.0618C7.69091 26.0417 6.94745 26 6.29895 26V46ZM-2.39245 42.2733C-0.73639 43.9637 2.18692 46 6.29895 46V26C9.18039 26 11.0956 27.4621 11.8938 28.2768L-2.39245 42.2733ZM-5.1981 38.2485C-4.81818 39.0084 -3.93453 40.6993 -2.39247 42.2733L11.8938 28.2768C12.276 28.667 12.4957 28.9902 12.5844 29.1279C12.6785 29.274 12.7145 29.3524 12.6904 29.3043L-5.1981 38.2485ZM-6.30102 32.2562C-6.35965 33.0624 -6.51868 35.6074 -5.1981 38.2485L12.6904 29.3043C13.0828 30.089 13.2906 30.7732 13.4038 31.2245C13.5231 31.7001 13.5838 32.1052 13.6166 32.4072C13.6811 33.002 13.6647 33.4538 13.6463 33.7069L-6.30102 32.2562ZM-5.75528 29.1147C-5.97891 29.9533 -6.21345 31.0521 -6.30102 32.2562L13.6463 33.7069C13.6286 33.95 13.6014 34.1092 13.5902 34.1698C13.5835 34.2062 13.5781 34.2313 13.575 34.245C13.5718 34.259 13.5698 34.2664 13.5694 34.268L-5.75528 29.1147ZM-4.88001 26.5537C-5.22666 27.3683 -5.52462 28.2497 -5.75528 29.1147L13.5694 34.268C13.569 34.2695 13.5692 34.2687 13.5698 34.2666C13.5705 34.2645 13.5706 34.2643 13.5696 34.2671C13.5688 34.2696 13.5655 34.279 13.5592 34.2958C13.553 34.3121 13.5413 34.3419 13.5231 34.3848L-4.88001 26.5537ZM-4.1864 25.1355C-4.4786 25.6545 -4.70778 26.1489 -4.88001 26.5536L13.5231 34.3848C13.5051 34.4269 13.4764 34.4922 13.4352 34.5776C13.3955 34.6597 13.3317 34.7869 13.2416 34.9469L-4.1864 25.1355ZM-2.41856 22.7825C-3.40617 23.7701 -3.98149 24.7715 -4.1864 25.1355L13.2417 34.9469C13.142 35.1238 13.0021 35.3557 12.8157 35.6233C12.7229 35.7566 12.6038 35.92 12.4578 36.1032C12.3449 36.2449 12.0896 36.5586 11.7236 36.9246L-2.41856 22.7825ZM-2.14487 22.519L-2.14562 22.5197L11.4506 37.1874L11.4514 37.1867L-2.14487 22.519ZM-2.12029 22.4963C-2.14505 22.5191 -2.16785 22.5403 -2.18857 22.5597L11.4951 37.146C11.4753 37.1645 11.4539 37.1845 11.4309 37.2056L-2.12029 22.4963ZM-2.00356 22.3904L-2.01435 22.4001L11.325 37.3018L11.3358 37.2922L-2.00356 22.3904ZM-1.6599 22.0955C-1.72615 22.1502 -1.82047 22.2291 -1.92847 22.3239L11.2607 37.3587C11.2141 37.3995 11.1753 37.4328 11.147 37.4567C11.1181 37.4812 11.094 37.5012 11.0761 37.516L-1.6599 22.0955ZM-1.33204 21.832C-1.40969 21.8931 -1.53084 21.9889 -1.65993 22.0955L11.0761 37.516C11.0583 37.5307 11.0444 37.5421 11.0354 37.5494C11.0262 37.5568 11.0201 37.5618 11.0175 37.5638C11.0132 37.5673 11.0167 37.5644 11.0312 37.553L-1.33204 21.832ZM-1.07271 21.6296C-1.14738 21.6877 -1.24238 21.7615 -1.3321 21.832L11.0312 37.553C11.0688 37.5234 11.1169 37.486 11.2037 37.4185L-1.07271 21.6296ZM-1.04235 21.6061L-1.04255 21.6062L11.1735 37.4419L11.1737 37.4417L-1.04235 21.6061ZM-1.09057 21.6435L-1.09076 21.6437L11.2221 37.4042L11.2223 37.404L-1.09057 21.6435ZM-0.859574 21.4635C-0.933067 21.521 -1.00071 21.5736 -1.07207 21.6291L11.2038 37.4184C11.2741 37.3638 11.3622 37.2953 11.4606 37.2183L-0.859574 21.4635ZM0.0551864 20.7161C-0.24219 20.9748 -0.551962 21.223 -0.85943 21.4634L11.4604 37.2185C11.8749 36.8943 12.499 36.3996 13.1821 35.8054L0.0551864 20.7161ZM0.301895 20.7515C0.385792 20.5837 0.461733 20.4531 0.519078 20.3607C0.576719 20.2679 0.622973 20.2017 0.651489 20.1624C0.680272 20.1228 0.697355 20.102 0.699055 20.0999C0.700968 20.0976 0.692288 20.1082 0.67098 20.1318C0.62595 20.1816 0.55028 20.2607 0.438583 20.3677C0.328307 20.4735 0.200235 20.5899 0.0551757 20.7161L13.1821 35.8054C14.2066 34.9141 16.685 32.7067 18.1904 29.6957L0.301895 20.7515ZM0.354682 20.6459L0.301895 20.7515L18.1904 29.6957L18.2432 29.5902L0.354682 20.6459ZM-0.701046 25V25.118H19.299V25H-0.701046ZM-0.701046 23.5V25H19.299V23.5H-0.701046ZM-0.701046 23.382V23.5H19.299V23.382H-0.701046ZM0.301928 27.7486L0.354714 27.8542L18.2432 18.9098L18.1904 18.8042L0.301928 27.7486ZM4.40658 31.6038C4.82297 31.74 4.19451 31.5703 3.45603 31.1394C2.5151 30.5905 1.19278 29.5303 0.301895 27.7485L18.1904 18.8043C15.7204 13.8642 10.766 12.6412 10.6274 12.5958L4.40658 31.6038ZM4.2301 31.5466C4.30764 31.5716 4.35946 31.5884 4.40661 31.6038L10.6273 12.5958C10.5313 12.5644 10.4375 12.5342 10.367 12.5114L4.2301 31.5466ZM4.22074 31.5436L4.22141 31.5438L10.3757 12.5142L10.375 12.514L4.22074 31.5436ZM-0.0887537 29.6462C1.82563 30.7948 3.536 31.3228 4.22934 31.5464L10.3664 12.5112C10.2816 12.4839 10.222 12.4647 10.1648 12.4459C10.1104 12.4281 10.0709 12.4148 10.0402 12.4043C9.97971 12.3835 9.96362 12.3767 9.97244 12.3802C9.98315 12.3845 10.0151 12.3978 10.0601 12.4198C10.1057 12.442 10.1539 12.468 10.2012 12.4963L-0.0887537 29.6462ZM-7.19444 22.2559C-6.42142 23.8027 -4.56057 26.9631 -0.0887583 29.6462L10.2012 12.4963C9.93749 12.3381 9.99879 12.3235 10.2055 12.5665C10.3027 12.6807 10.4091 12.8251 10.5165 12.9983C10.5692 13.0832 10.6152 13.1639 10.6536 13.2351C10.6902 13.303 10.7169 13.3572 10.6959 13.3151L-7.19444 22.2559ZM-7.19923 22.2463L-7.19469 22.2554L10.6961 13.3156L10.6916 13.3065L-7.19923 22.2463ZM-8.35557 14.4065C-8.67127 16.6164 -8.54102 19.5627 -7.1981 22.2485L10.6904 13.3043C11.0185 13.9604 11.1898 14.5085 11.2791 14.8432C11.3758 15.2056 11.4286 15.5154 11.4584 15.7631C11.5159 16.2422 11.5159 16.7274 11.4434 17.2349L-8.35557 14.4065ZM-2.9707 5.5955C-6.82862 8.16745 -8.02386 12.0845 -8.35557 14.4065L11.4434 17.2349C11.3402 17.9578 10.8092 20.4459 8.12331 22.2365L-2.9707 5.5955ZM2.60653 3.59273C1.32933 3.75647 -0.855721 4.18552 -2.9707 5.5955L8.12331 22.2365C7.26611 22.808 6.51957 23.0843 6.10436 23.2143C5.65891 23.3536 5.3246 23.408 5.14979 23.4304L2.60653 3.59273ZM6.65904 3.53899C5.45162 3.42923 4.05168 3.40745 2.60651 3.59273L5.14981 23.4304C4.97084 23.4533 4.86431 23.4547 4.83885 23.4549C4.80872 23.4551 4.81378 23.4537 4.84833 23.4569L6.65904 3.53899ZM14.5686 6.0955C11.8898 4.30961 8.66557 3.72141 6.65904 3.53899L4.84833 23.4569C4.94311 23.4655 4.9903 23.4812 4.93349 23.4652C4.89935 23.4556 4.77374 23.419 4.57441 23.3358C4.40029 23.2631 3.99271 23.0819 3.4746 22.7365L14.5686 6.0955ZM7.67399 4.9886C10.6444 4.21406 13.1488 5.149 14.5686 6.0955L3.4746 22.7365C5.67676 24.2046 8.98433 25.3157 12.7203 24.3415L7.67399 4.9886ZM3.13192 7.9275C3.66438 7.25042 5.09848 5.66018 7.67396 4.98861L12.7203 24.3415C16.0206 23.4809 17.9743 21.408 18.853 20.2906L3.13192 7.9275ZM2.34589 9.15404C2.48796 8.8737 2.73578 8.43122 3.13193 7.92748L18.853 20.2907C19.4753 19.4993 19.9037 18.7516 20.1857 18.1951L2.34589 9.15404ZM3.1231 7.83492L2.7858 8.37461L19.7458 18.9746L20.0831 18.4349L3.1231 7.83492ZM-9.72748e-05 8.5C-9.72748e-05 12.572 1.40299 16.3441 3.74516 19.3198L19.461 6.95C19.7949 7.37418 19.9999 7.92707 19.9999 8.5H-9.72748e-05ZM17.4999 -9C7.83492 -9 -9.72748e-05 -1.16498 -9.72748e-05 8.5H19.9999C19.9999 9.88071 18.8806 11 17.4999 11V-9ZM34.9999 8.5C34.9999 -1.16498 27.1649 -9 17.4999 -9V11C16.1192 11 14.9999 9.88071 14.9999 8.5H34.9999ZM18.7471 7.66829C18.9071 7.91101 18.9999 8.20988 18.9999 8.5H-1.0001C-1.0001 12.2421 0.121589 15.7527 2.04948 18.6769L18.7471 7.66829ZM18.9999 8.5C18.9999 9.32843 18.3283 10 17.4999 10V-10C7.28264 -10 -1.0001 -1.71727 -1.0001 8.5H18.9999ZM17.4999 10C16.6715 10 15.9999 9.32843 15.9999 8.5H35.9999C35.9999 -1.71727 27.7172 -10 17.4999 -10V10ZM15.9999 8.5C15.9999 8.20871 16.0934 7.90887 16.2544 7.66579L32.9298 18.708C34.8702 15.7777 35.9999 12.2556 35.9999 8.5H15.9999ZM15.461 17.2642C15.8781 18.1981 16.7971 19.9449 18.6324 21.4317L31.2219 5.89126C32.077 6.58397 32.6337 7.28643 32.9652 7.76581C33.3118 8.267 33.5535 8.72976 33.7231 9.1096L15.461 17.2642ZM18.6325 21.4317C20.1579 22.6675 22.3445 23.7249 25.0332 23.7734L25.394 3.77669C26.5206 3.79702 27.6561 4.01694 28.739 4.44431C29.7948 4.86101 30.6188 5.40273 31.2218 5.89122L18.6325 21.4317ZM25.0331 23.7734C27.6582 23.8208 29.7918 22.8896 31.2696 21.9045L20.1756 5.26344C21.1765 4.59617 22.9777 3.73307 25.3941 3.77669L25.0331 23.7734ZM31.2696 21.9045C30.8373 22.1926 30.5027 22.3443 30.3541 22.407C30.1911 22.4757 30.0993 22.5013 30.0948 22.5025C30.0851 22.5053 30.1129 22.4972 30.174 22.4861C30.2337 22.4754 30.2989 22.4665 30.36 22.461L28.5493 2.5431C26.4746 2.73171 23.0566 3.34278 20.1756 5.26345L31.2696 21.9045ZM30.36 22.461C30.3901 22.4582 30.4155 22.4566 30.4351 22.4557C30.4448 22.4553 30.4523 22.4551 30.4577 22.455C30.4631 22.4549 30.4658 22.4549 30.4658 22.4549C30.4658 22.4549 30.4625 22.4549 30.4558 22.4547C30.4492 22.4544 30.4385 22.454 30.4238 22.4531C30.3955 22.4513 30.3458 22.4474 30.2762 22.4385L32.8195 2.60085C31.2864 2.4043 29.8115 2.42836 28.5493 2.5431L30.36 22.461ZM30.2762 22.4385C30.1578 22.4233 29.8794 22.3808 29.4919 22.2595C29.1146 22.1414 28.4702 21.8978 27.7303 21.4045L38.8243 4.76345C36.5274 3.23222 34.1694 2.77392 32.8195 2.60085L30.2762 22.4385ZM27.7303 21.4045C25.3594 19.8239 24.9239 17.643 24.8454 17.0935L44.6444 14.2651C44.2943 11.8146 43.0231 7.56268 38.8243 4.76346L27.7303 21.4045ZM24.8454 17.0935C24.7879 16.6911 24.7836 16.2977 24.8331 15.8849C24.8745 15.5396 25.003 14.7512 25.5029 13.7514L43.3914 22.6958C44.8509 19.7767 44.9795 16.6109 44.6444 14.265L24.8454 17.0935ZM25.5029 13.7515C25.4826 13.7921 25.5003 13.7558 25.5275 13.7055C25.556 13.6528 25.5906 13.5921 25.6303 13.528C25.7118 13.3965 25.7885 13.2931 25.8518 13.2183C25.914 13.1447 25.9427 13.1232 25.9193 13.1431C25.8953 13.1635 25.8016 13.2402 25.6122 13.3538L35.9021 30.5037C40.6302 27.6669 42.5884 24.3018 43.3914 22.6958L25.5029 13.7515ZM25.6122 13.3538C25.6689 13.3198 25.7077 13.3046 25.6932 13.3105C25.6811 13.3153 25.6488 13.3279 25.5808 13.3513C25.5029 13.3781 25.4187 13.4054 25.2465 13.4608L31.3695 32.5005C32.0836 32.2708 33.8889 31.7116 35.9021 30.5037L25.6122 13.3538ZM25.2466 13.4608C25.1771 13.4831 25.0803 13.5142 24.9825 13.5463L31.2034 32.5541C31.2436 32.541 31.2903 32.526 31.3694 32.5005L25.2466 13.4608ZM24.9826 13.5462C24.9232 13.5657 21.1272 14.5127 18.7505 17.9814L35.2493 29.2859C34.1225 30.9304 32.7589 31.7986 31.9987 32.1959C31.3916 32.5131 30.9558 32.6352 31.2033 32.5542L24.9826 13.5462ZM16.9999 23.6337V24.878H36.9999V23.6337H16.9999ZM18.1979 29.6239C19.595 32.215 21.7646 34.1744 22.7817 35.0597L35.9126 19.9739C35.7799 19.8584 35.6647 19.7534 35.5683 19.6612C35.4705 19.5677 35.4077 19.5023 35.3747 19.4663C35.3593 19.4494 35.3559 19.4451 35.3627 19.4532C35.3693 19.461 35.3907 19.4868 35.4236 19.5305C35.4561 19.5737 35.5064 19.6429 35.5683 19.7377C35.6298 19.8317 35.7112 19.9636 35.802 20.132L18.1979 29.6239ZM22.7817 35.0597C23.4474 35.6391 24.0568 36.1227 24.4699 36.4454L36.7819 20.6842C36.4868 20.4537 36.1922 20.2173 35.9126 19.9739L22.7817 35.0597ZM24.4697 36.4452C24.5713 36.5246 24.6701 36.6012 24.7468 36.6607L37.0074 20.8595C36.9272 20.7973 36.8538 20.7403 36.782 20.6843L24.4697 36.4452ZM24.7458 36.66L24.7474 36.6612L37.0099 20.8615L37.0083 20.8603L24.7458 36.66ZM24.7483 36.6619C24.8285 36.7241 24.8765 36.7614 24.9099 36.7875L37.2393 21.04C37.1641 20.9811 37.0773 20.9138 37.0089 20.8607L24.7483 36.6619ZM24.9098 36.7875C24.9647 36.8304 24.934 36.807 24.8806 36.7631C24.8497 36.7378 24.7849 36.684 24.7 36.6094C24.6234 36.5421 24.4703 36.4054 24.2824 36.2175L38.4245 22.0754C38.0374 21.6882 37.6875 21.4008 37.581 21.3132C37.4303 21.1894 37.2912 21.0806 37.2394 21.0401L24.9098 36.7875ZM24.2824 36.2175C23.81 35.7452 23.4917 35.321 23.3105 35.0614C23.1215 34.7909 22.9941 34.5727 22.9286 34.4563L40.3567 24.6449C40.1264 24.2359 39.5004 23.1512 38.4245 22.0754L24.2824 36.2175ZM22.9286 34.4563C22.8515 34.3193 22.7975 34.2117 22.7645 34.1433C22.7305 34.0729 22.7081 34.0218 22.6959 33.9932L41.0991 26.1622C40.9168 25.7338 40.6717 25.2045 40.3567 24.6449L22.9286 34.4563ZM22.6959 33.9932C22.6894 33.9779 22.6846 33.966 22.6812 33.9577C22.6778 33.9493 22.6756 33.9436 22.6745 33.9405C22.6723 33.9349 22.673 33.9364 22.6758 33.9445C22.6784 33.9524 22.682 33.9632 22.6859 33.976C22.6898 33.9888 22.6931 34.0006 22.6957 34.0103L42.0204 28.857C41.7786 27.9504 41.4657 27.0238 41.099 26.1621L22.6959 33.9932ZM22.6957 34.0103C22.7021 34.0343 22.6994 34.0285 22.6921 33.9885C22.6858 33.9543 22.6644 33.8326 22.6499 33.6344L42.5973 32.1837C42.5038 30.8983 42.2545 29.7349 42.0204 28.8571L22.6957 34.0103ZM22.6499 33.6345C22.6385 33.4772 22.6157 33.0687 22.6777 32.5033C22.7371 31.9628 22.9093 30.9387 23.5029 29.7514L41.3914 38.6958C42.8322 35.8142 42.6605 33.0538 42.5972 32.1836L22.6499 33.6345ZM23.5029 29.7515C23.4674 29.8224 23.4873 29.7747 23.5567 29.6671C23.6216 29.5664 23.7991 29.3035 24.1194 28.9767L38.4056 42.9732C40.0566 41.2881 40.9955 39.4875 41.3914 38.6957L23.5029 29.7515ZM24.1194 28.9767C24.7821 28.3002 26.4545 27 28.9999 27V47C33.477 47 36.6413 44.774 38.4056 42.9732L24.1194 28.9767ZM28.9999 27C28.3788 27 27.663 27.0403 27.2809 27.06L28.3144 47.0333C28.5744 47.0199 28.7483 47.0109 28.8918 47.0049C29.0431 46.9985 29.0579 47 28.9999 47V27ZM27.2847 27.0598L26.9888 27.075L28.0147 47.0487L28.3106 47.0335L27.2847 27.0598ZM26.9961 27.0747C26.4069 27.1045 25.9033 27.125 25.4374 27.125V47.125C26.4357 47.125 27.3593 47.0819 28.0074 47.0491L26.9961 27.0747ZM25.4374 27.125C25.2131 27.125 25.0276 27.1202 24.876 27.112C24.722 27.1037 24.6354 27.0936 24.6059 27.0896C24.572 27.0849 24.6518 27.0934 24.817 27.1383C24.9763 27.1816 25.3117 27.2846 25.7484 27.5029L16.8042 45.3915C20.2326 47.1057 23.9979 47.125 25.4374 47.125V27.125ZM25.7485 27.503C25.896 27.5767 25.9867 27.6331 26.0184 27.6534C26.052 27.6748 26.0519 27.6767 26.0186 27.6516C25.9863 27.6272 25.9355 27.5871 25.8675 27.5291C25.8001 27.4716 25.7243 27.4039 25.642 27.3269L11.9745 41.9282C12.9763 42.866 14.6736 44.3262 16.8042 45.3915L25.7485 27.503ZM25.642 27.3269C25.4379 27.1359 25.2409 26.9314 25.0842 26.7571L10.2147 40.1324C10.703 40.6753 11.2999 41.2968 11.9745 41.9282L25.642 27.3269ZM10.2147 26.7571C10.058 26.9314 9.86094 27.1359 9.65689 27.3269L23.3244 41.9282C23.999 41.2968 24.5958 40.6753 25.0842 40.1324L10.2147 26.7571ZM9.65688 27.3269C9.57455 27.4039 9.49877 27.4716 9.43133 27.5291C9.36332 27.5871 9.31254 27.6272 9.28024 27.6516C9.24694 27.6767 9.24691 27.6748 9.28045 27.6534C9.31221 27.6331 9.40283 27.5767 9.55041 27.503L18.4947 45.3915C20.6253 44.3262 22.3226 42.866 23.3244 41.9282L9.65688 27.3269ZM9.55043 27.5029C9.98721 27.2846 10.3226 27.1816 10.4818 27.1383C10.6471 27.0934 10.7268 27.0849 10.6929 27.0896C10.6634 27.0936 10.5768 27.1037 10.4229 27.112C10.2713 27.1202 10.0857 27.125 9.86145 27.125V47.125C11.301 47.125 15.0663 47.1057 18.4947 45.3915L9.55043 27.5029ZM9.86145 27.125C9.39562 27.125 8.89193 27.1045 8.30276 27.0747L7.29146 47.0491C7.9396 47.0819 8.86316 47.125 9.86145 47.125V27.125ZM8.31003 27.075L8.01413 27.0598L6.98828 47.0335L7.28418 47.0487L8.31003 27.075ZM8.01795 27.06C7.63587 27.0403 6.92012 27 6.29895 27V47C6.241 47 6.25573 46.9985 6.40704 47.0049C6.55061 47.0109 6.72447 47.0199 6.98445 47.0333L8.01795 27.06ZM6.29895 27C8.84441 27 10.5168 28.3002 11.1795 28.9767L-3.10677 42.9732C-1.34244 44.774 1.82182 47 6.29895 47V27ZM11.1795 28.9767C11.4997 29.3035 11.6773 29.5663 11.7422 29.6671C11.8115 29.7747 11.8315 29.8224 11.796 29.7515L-6.09254 38.6957C-5.69665 39.4875 -4.75769 41.2881 -3.10677 42.9732L11.1795 28.9767ZM11.796 29.7514C12.3896 30.9387 12.5618 31.9629 12.6211 32.5033C12.6832 33.0687 12.6604 33.4772 12.6489 33.6344L-7.29839 32.1837C-7.36166 33.0537 -7.53333 35.8142 -6.09251 38.6958L11.796 29.7514ZM12.6489 33.6344C12.6345 33.8326 12.6131 33.9543 12.6068 33.9885C12.5994 34.0285 12.5968 34.0343 12.6032 34.0103L-6.72151 28.857C-6.95561 29.7349 -7.2049 30.8983 -7.29839 32.1837L12.6489 33.6344ZM12.6032 34.0103C12.6058 34.0006 12.6091 33.9888 12.613 33.976C12.6169 33.9632 12.6204 33.9523 12.6231 33.9445C12.6258 33.9364 12.6265 33.9349 12.6244 33.9405C12.6232 33.9436 12.621 33.9493 12.6177 33.9577C12.6143 33.966 12.6094 33.9779 12.6029 33.9932L-5.80017 26.1621C-6.16686 27.0238 -6.47973 27.9504 -6.72151 28.857L12.6032 34.0103ZM12.6029 33.9932C12.5908 34.0218 12.5684 34.0729 12.5344 34.1433C12.5014 34.2117 12.4474 34.3193 12.3703 34.4563L-5.05781 24.6449C-5.37282 25.2045 -5.6179 25.7338 -5.80018 26.1621L12.6029 33.9932ZM12.3703 34.4563C12.3047 34.5727 12.1774 34.7909 11.9884 35.0614C11.8072 35.321 11.4888 35.7452 11.0165 36.2175L-3.12567 22.0754C-4.20151 23.1512 -4.82755 24.2359 -5.05781 24.6449L12.3703 34.4563ZM11.0165 36.2175C10.841 36.393 10.6979 36.5217 10.6226 36.5882C10.5406 36.6607 10.4778 36.7132 10.4468 36.7388C10.3925 36.7838 10.3627 36.8065 10.4131 36.7669L-1.95032 21.046C-2.01015 21.0931 -2.15057 21.2035 -2.30417 21.3306C-2.41982 21.4263 -2.75403 21.7037 -3.12567 22.0754L11.0165 36.2175ZM10.4131 36.7669C10.451 36.7371 10.5036 36.6962 10.5945 36.6255L-1.68293 20.8373C-1.76033 20.8975 -1.86041 20.9753 -1.95028 21.046L10.4131 36.7669ZM10.6016 36.6199L10.6027 36.6191L-1.68895 20.842L-1.69001 20.8429L10.6016 36.6199ZM10.5955 36.6247C10.6656 36.5702 10.7526 36.5025 10.8444 36.4308L-1.47535 20.6756C-1.54286 20.7284 -1.60949 20.7802 -1.6818 20.8365L10.5955 36.6247ZM10.8445 36.4307C11.2535 36.1108 11.8619 35.6284 12.5257 35.0509L-0.601172 19.9617C-0.879189 20.2035 -1.17319 20.4393 -1.47544 20.6757L10.8445 36.4307ZM12.5257 35.0509C13.5439 34.1651 15.7056 32.2129 17.1019 29.6223L-0.503941 20.1336C-0.413938 19.9666 -0.333151 19.8355 -0.271673 19.7413C-0.209807 19.6466 -0.159428 19.5771 -0.126413 19.5332C-0.0930929 19.4889 -0.0710604 19.4623 -0.0637056 19.4535C-0.056127 19.4445 -0.0586423 19.4479 -0.0731526 19.4637C-0.104327 19.4977 -0.165214 19.5612 -0.261213 19.653C-0.355881 19.7436 -0.469467 19.8471 -0.601167 19.9617L12.5257 35.0509ZM18.299 24.878V23.6337H-1.70105V24.878H18.299ZM16.5483 17.9814C14.1717 14.5127 10.3757 13.5657 10.3163 13.5462L4.09557 32.5542C4.34308 32.6352 3.90725 32.5131 3.30019 32.1959C2.53995 31.7986 1.17635 30.9304 0.049574 29.2859L16.5483 17.9814ZM10.3164 13.5463C10.2186 13.5142 10.1218 13.4831 10.0523 13.4608L3.92944 32.5005C4.0086 32.526 4.05527 32.541 4.09547 32.5541L10.3164 13.5463ZM10.0524 13.4608C9.88017 13.4054 9.796 13.3781 9.71803 13.3513C9.65003 13.3279 9.61779 13.3153 9.60569 13.3105C9.59114 13.3046 9.62999 13.3198 9.68666 13.3538L-0.603243 30.5037C1.41 31.7116 3.21532 32.2708 3.92939 32.5005L10.0524 13.4608ZM9.68667 13.3538C9.49725 13.2402 9.40352 13.1635 9.37952 13.1431C9.35612 13.1232 9.38484 13.1447 9.44708 13.2183C9.51035 13.2931 9.58707 13.3965 9.66856 13.528C9.70826 13.5921 9.74289 13.6528 9.77135 13.7055C9.79856 13.7558 9.81631 13.7921 9.79601 13.7515L-8.09253 22.6958C-7.28952 24.3018 -5.33129 27.6669 -0.603252 30.5037L9.68667 13.3538ZM9.79601 13.7515C10.2959 14.7512 10.4244 15.5396 10.4658 15.8849C10.5153 16.2977 10.511 16.6911 10.4535 17.0935L-9.34551 14.2651C-9.68064 16.6109 -9.55207 19.7767 -8.09253 22.6957L9.79601 13.7515ZM10.4535 17.0935C10.375 17.643 9.9395 19.8239 7.56861 21.4045L-3.5254 4.76345C-7.72424 7.56268 -8.99546 11.8147 -9.34552 14.2651L10.4535 17.0935ZM7.56861 21.4045C6.82866 21.8978 6.18425 22.1414 5.80699 22.2595C5.41948 22.3808 5.14104 22.4233 5.02265 22.4385L2.47934 2.60085C1.12942 2.77392 -1.22855 3.23222 -3.5254 4.76345L7.56861 21.4045ZM5.02263 22.4385C4.95309 22.4474 4.90341 22.4513 4.87509 22.4531C4.8604 22.454 4.8497 22.4544 4.84305 22.4547C4.83637 22.4549 4.83304 22.4549 4.83304 22.4549C4.83302 22.4549 4.83574 22.4549 4.84114 22.455C4.84653 22.4551 4.85409 22.4553 4.86372 22.4557C4.88339 22.4566 4.90876 22.4582 4.93887 22.461L6.74957 2.5431C5.48737 2.42836 4.01246 2.4043 2.47936 2.60085L5.02263 22.4385ZM4.93886 22.461C4.99992 22.4665 5.0652 22.4754 5.12487 22.4861C5.18592 22.4972 5.21377 22.5053 5.20403 22.5025C5.1996 22.5013 5.10776 22.4757 4.94477 22.407C4.79613 22.3443 4.46156 22.1926 4.0293 21.9045L15.1233 5.26345C12.2423 3.34278 8.82431 2.73171 6.74958 2.5431L4.93886 22.461ZM4.02928 21.9044C6.1048 23.2881 9.11979 24.2469 12.4679 23.3739L7.42172 4.02095C8.66942 3.69561 10.2071 3.56173 11.8698 3.90986C13.3565 4.22112 14.4525 4.81627 15.1233 5.26347L4.02928 21.9044ZM12.4679 23.3739C15.4576 22.5943 17.2428 20.7205 18.0669 19.6725L2.34588 7.30932C2.96579 6.52104 4.57013 4.76447 7.42177 4.02093L12.4679 23.3739ZM18.067 19.6725C18.7491 18.8051 19.1809 17.9895 19.4301 17.4653L1.36651 8.87991C1.513 8.5717 1.81586 7.9833 2.34586 7.30934L18.067 19.6725ZM38.4551 23.6067L38.455 23.6066L22.8377 36.1005L22.8377 36.1006L38.4551 23.6067ZM23.5753 36.9246C23.5729 36.9222 23.5404 36.8898 23.5001 36.8487C23.4808 36.8289 23.4344 36.7814 23.3762 36.7197C23.3606 36.7032 23.1709 36.5046 22.9508 36.2394C22.9302 36.2145 22.4717 35.6794 22.0279 34.9251C21.8928 34.6955 21.6641 34.2872 21.437 33.7506C21.2563 33.3235 20.8083 32.2051 20.6813 30.6878C20.5577 29.2106 20.6449 25.6929 23.5997 22.7584C26.4578 19.9198 29.8335 19.8036 31.1221 19.865C33.4601 19.9763 35.1533 20.9268 35.1667 20.9336C35.6235 21.1651 35.9622 21.3819 36.1036 21.4739C36.413 21.6754 36.6425 21.8502 36.7116 21.9029C36.8868 22.0366 37.0194 22.1474 37.0471 22.1704C37.0972 22.2122 37.1363 22.2456 37.1543 22.2611L24.1385 37.4462C24.1566 37.4617 24.1957 37.4951 24.2458 37.5369C24.2735 37.5599 24.4061 37.6707 24.5813 37.8044C24.6504 37.8571 24.8799 38.0319 25.1893 38.2334C25.3307 38.3255 25.6695 38.5423 26.1263 38.7737C26.1396 38.7805 27.8328 39.731 30.1708 39.8423C31.4594 39.9037 34.8351 39.7875 37.6932 36.9489C40.648 34.0144 40.7353 30.4967 40.6116 29.0195C40.4846 27.5022 40.0366 26.3838 39.8559 25.9567C39.6288 25.4201 39.4002 25.0118 39.2651 24.7822C38.8212 24.0279 38.3627 23.4928 38.3421 23.4679C38.122 23.2027 37.9324 23.0041 37.9167 22.9875C37.8585 22.9259 37.8121 22.8783 37.7927 22.8586C37.7524 22.8174 37.7199 22.785 37.7174 22.7825L23.5753 36.9246Z" fill="white" mask="url(#path-1-inside-1_20_7)"/>
</svg>
