<svg width="74" height="35" viewBox="0 0 74 35" fill="none" xmlns="http://www.w3.org/2000/svg">
<circle cx="65.5" cy="5.5" r="2.5" fill="#E9DF5C"/>
<circle cx="40.5" cy="11.5" r="2.5" fill="#5CE9D8"/>
<circle cx="55.5" cy="17.5" r="1.5" fill="#63E95C"/>
<circle cx="63.5" cy="15.5" r="1.5" fill="#E95C5C"/>
<circle cx="43" cy="29" r="2" fill="#865CE9"/>
<circle cx="31.5" cy="30.5" r="2.5" fill="#92E95C"/>
<path d="M35 18L35.8981 20.7639H38.8042L36.4531 22.4721L37.3511 25.2361L35 23.5279L32.6489 25.2361L33.5469 22.4721L31.1958 20.7639H34.1019L35 18Z" fill="#EE6363"/>
<path d="M55.5 30L56.0613 31.7275H57.8776L56.4082 32.7951L56.9695 34.5225L55.5 33.4549L54.0305 34.5225L54.5918 32.7951L53.1224 31.7275H54.9387L55.5 30Z" fill="#636AEE"/>
<path d="M50.5 8L51.0613 9.72746H52.8776L51.4082 10.7951L51.9695 12.5225L50.5 11.4549L49.0305 12.5225L49.5918 10.7951L48.1224 9.72746H49.9387L50.5 8Z" fill="#506ED0"/>
<path d="M14.5 25L15.2858 27.4184H17.8287L15.7714 28.9131L16.5572 31.3316L14.5 29.8369L12.4428 31.3316L13.2286 28.9131L11.1713 27.4184H13.7142L14.5 25Z" fill="#D35E5E"/>
<path d="M61.7462 20.9504L62.7849 26.0416L57.8564 24.3956L61.7462 20.9504Z" fill="#5093C9"/>
<path d="M24.3011 16.2117L28.9471 20.1059L23.2517 22.1824L24.3011 16.2117Z" fill="#3ABE49"/>
<path d="M48.3842 18.5772L47.0835 21.7878L44.9534 19.0561L48.3842 18.5772Z" fill="#1E5F25"/>
<path d="M2.5 28L4.66506 31.75H0.334936L2.5 28Z" fill="#E8A73E"/>
<rect x="48" y="26" width="4" height="4" fill="#EE9F66"/>
<rect x="71.1074" y="26" width="3" height="3" transform="rotate(21.662 71.1074 26)" fill="#66E5EE"/>
<rect x="52" width="4" height="4" fill="#D766EE"/>
</svg>
